<svg height="512" viewBox="0 0 60 60" width="512" xmlns="http://www.w3.org/2000/svg"><g id="Page-1" fill="none" fill-rule="evenodd"><g id="010---Bath-and-Shower" fill="rgb(0,0,0)" fill-rule="nonzero"><path id="Shape" d="m57 41v-3h1c1.1045695 0 2-.8954305 2-2v-1c0-2.209139-1.790861-4-4-4h-6.49c-1.2895414-2.4573898-3.8348106-3.9976435-6.61-4h-11c-2.1197487-.1060767-4.1859789.6865047-5.691 2.183-.162-.122-.323-.246-.473-.377-3.0036512-2.5199892-6.8157978-3.8714264-10.736-3.806h-4v-18c0-.55228475.4477153-1 1-1h5.34c.2684703-.00060172.5257205.10763822.713.3l1.421 1.421c-.9520604 1.22351472-1.47056 2.7287112-1.474 4.279 0 1.1045695.8954305 2 2 2h10c1.0222706-.0117167 1.8776675-.7790078 2-1.794.053569-3.57304508-2.5510529-6.63166791-6.087-7.148-.223-.028-.446-.042-.669-.049l-2.944-2.956c-1.3124223-1.31985286-3.0987034-2.05921477-4.96-2.053h-5.34c-3.86416566.00440864-6.99559136 3.13583434-7 7v18h-1c-2.209139 0-4 1.790861-4 4v1c0 1.1045695.8954305 2 2 2h1v9c.00445772 4.4302024 2.26608201 8.5527665 6 10.937v2.063h-1c-1.65685425 0-3 1.3431458-3 3v1h-4c-.55228475 0-1 .4477153-1 1s.44771525 1 1 1h58c.5522847 0 1-.4477153 1-1s-.4477153-1-1-1h-4v-1c0-1.6568542-1.3431458-3-3-3h-1v-2.063c3.733918-2.3842335 5.9955423-6.5067976 6-10.937zm1-6v1h-7.6v-1.5c-.0001281-.5038882-.0513907-1.0064628-.153-1.5h5.753c1.1045695 0 2 .8954305 2 2zm-10.023-2.617c.2794687.6707932.4232377 1.3903184.423 2.117v11.5c0 .5522847-.4477153 1-1 1h-7.4c-.5522847 0-1-.4477153-1-1v-11.5c.0012542-2.0890886-.871543-4.0834321-2.407-5.5000001l6.307.0000001c2.2199908-.0003028 4.2225054 1.3340494 5.077 3.383zm-12.977 2.117c.0033906-.4611785-.0874669-.9181883-.267-1.343-.5377088-1.3032003-1.8072287-2.154414-3.217-2.157-1.2039587-.0145094-2.3923848-.2737653-3.493-.762 1.645622-1.342676 3.9172539-1.6178626 5.8358754-.7069609 1.9186216.9109018 3.1413137 2.8450846 3.1411246 4.9689609v11.5c.0033144.3414397.0655622.679743.184 1h-1.184c-.5522847 0-1-.4477153-1-1zm-5-22.5h-10c0-2.76142375 2.2385763-5 5-5s5 2.23857625 5 5zm-23-5c.00330612-2.76005315 2.23994685-4.99669388 5-5h5.34c1.3290696-.00397227 2.6044948.52391406 3.542 1.466l1.9 1.905c-.6685847.22211964-1.2997241.54409513-1.872.955l-1.443-1.443c-.5624696-.56681115-1.3284741-.88480922-2.127-.883h-5.34c-1.6568542 0-3 1.34314575-3 3v18h-2zm-5 22c0-1.1045695.8954305-2 2-2h11c3.4369896-.065317 6.7822664 1.1109622 9.422 3.313 1.864569 1.6129429 4.2155685 2.5550325 6.678 2.676.4915714-.0436782.9826168.0892764 1.385.375.3275606.2866026.5153152.7007565.515 1.136v1.5h-1c-3.4377196.0620678-6.7830563-1.1145678-9.425-3.315-1.9938379-1.7304986-4.5449217-2.6838263-7.185-2.685h-13.39zm3 12v-9h10.39c2.1576763.0010198 4.2427183.7795822 5.873 2.193 3.0046312 2.5190712 6.816608 3.8706774 10.737 3.807h1v8c0 1.6568542 1.3431458 3 3 3h11.4c1.6568542 0 3-1.3431458 3-3v-8h4.6v3c-.0071635 6.0721626-4.9278374 10.9928365-11 11h-28c-6.07216255-.0071635-10.9928365-4.9278374-11-11zm13.182 13h23.636c1.2339661.979012 2.0025765 2.4292204 2.12 4h-27.877c.1182715-1.5707662.8871388-3.0207752 2.121-4zm-11.182 4v-1c0-.5522847.44771525-1 1-1h2c.5522847 0 1-.4477153 1-1v-2c1.4206202.5891463 2.9350932.9196753 4.472.976-.8275432 1.1888963-1.3188227 2.5791275-1.422 4.024zm43-2h2c.5522847 0 1 .4477153 1 1v1h-7.045c-.1055443-1.4460947-.59846-2.8371047-1.427-4.027 1.5367232-.0553712 3.0511895-.3848828 4.472-.973v2c0 .5522847.4477153 1 1 1z"/><path id="Shape" d="m17 49c0-.5522847-.4477153-1-1-1-3.8641657-.0044086-6.99559136-3.1358343-7-7 0-.5522847-.44771525-1-1-1s-1 .4477153-1 1c.00551113 4.9682782 4.0317218 8.9944889 9 9 .5522847 0 1-.4477153 1-1z"/><path id="Shape" d="m24 17v5c0 .5522847.4477153 1 1 1s1-.4477153 1-1v-5c0-.5522847-.4477153-1-1-1s-1 .4477153-1 1z"/><path id="Shape" d="m20.071 16.628-2 5c-.2054499.5130725.0439275 1.09555.557 1.301.5130725.2054499 1.0955501-.0439275 1.301-.557l2-5c.2054499-.5130725-.0439275-1.09555-.557-1.301-.5130725-.2054499-1.0955501.0439275-1.301.557z"/><path id="Shape" d="m29.929 16.628c-.2054499-.5130725-.7879275-.7624499-1.301-.557s-.7624499.7879275-.557 1.301l2 5c.1329028.3318997.4327765.5676849.7866615.6185376s.7080177-.0909529.929-.372c.2209822-.2810471.2752413-.6586379.1423385-.9905376z"/></g></g></svg>