<svg height="512pt" viewBox="-58 0 512 512" width="512pt" xmlns="http://www.w3.org/2000/svg"><path d="m36.5 69.410156c4.144531 0 7.5-3.359375 7.5-7.5v-46.410156c0-.273438.226562-.5.5-.5h215.3125c.273438 0 .5.226562.5.5v151.847656c0 4.144532 3.355469 7.5 7.5 7.5 4.140625 0 7.5-3.355468 7.5-7.5v-151.847656c0-8.546875-6.953125-15.5-15.5-15.5h-215.3125c-8.546875 0-15.5 6.953125-15.5 15.5v46.410156c0 4.140625 3.355469 7.5 7.5 7.5zm0 0"/><path d="m388.375 231.800781c-9.097656-11.039062-23.976562-17.132812-37.90625-15.5-13.851562 1.613281-26.722656 10.277344-33.589844 22.601563-1.8125 3.246094-3.175781 6.386718-4.496094 9.425781-.835937 1.917969-1.617187 3.71875-2.445312 5.390625-4.96875-4.339844-9.640625-9.332031-11.113281-15.125-.703125-2.75-.757813-5.960938-.816407-9.359375-.070312-3.921875-.148437-8.363281-1.28125-12.820313-2.078124-8.117187-7.589843-15.53125-15.128906-20.339843-8.238281-5.242188-18.59375-7.257813-28.289062-5.726563v-12.449218c.003906-.160157.003906-.324219 0-.484376v-147.914062c0-4.144531-3.359375-7.5-7.5-7.5h-187.308594c-4.144531 0-7.5 3.355469-7.5 7.5v241.847656c0 4.144532 3.355469 7.5 7.5 7.5h155.308594c4.140625 0 7.5-3.355468 7.5-7.5 0-4.140625-3.359375-7.5-7.5-7.5h-147.808594v-12.351562c10.238281-2.84375 21.125-1.886719 32.652344-.871094 4.59375.40625 9.34375.824219 14.074218.988281 22.320313.757813 40.183594-6.085937 51.644532-19.800781 4.3125-5.164062 7.71875-10.8125 11.011718-16.273438 4.671876-7.746093 9.082032-15.0625 15.554688-20.195312 10.011719-7.941406 25.546875-11.421875 47.371094-10.59375v11.582031c-11.234375 8.105469-15.789063 22.492188-10.605469 35.203125 3.304687 8.019532 9.875 13.394532 12.347656 18.925782 4.269531 9.589843-5.363281 19.664062-4.890625 35.386718h-190.660156c-.273438 0-.5-.226562-.5-.5v-193.4375c0-4.144531-3.359375-7.5-7.5-7.5-4.144531 0-7.5 3.355469-7.5 7.5v193.4375c0 8.546875 6.953125 15.5 15.5 15.5h193.925781c6.074219 14.4375 18.0625 20.195313 19.503907 33.457032 1.078124 9.976562-.46875 19.574218 4.851562 32.96875.160156 2.597656.519531 5.183593 1.089844 7.726562.125.574219.265625 1.144531.414062 1.714844h-9.214844c-5.058593 0-9.871093 2.183594-13.199218 5.996094-3.328125 3.808593-4.847656 8.867187-4.167969 13.882812l13.175781 97.230469c1.402344 10.363281 10.347656 18.175781 20.800782 18.175781h61.292968c10.457032 0 19.398438-7.8125 20.804688-18.175781l13.171875-97.230469c.679687-5.015625-.839844-10.074219-4.167969-13.882812-6-6.867188-14.335938-5.914063-14.78125-5.996094.632812-5.6875-.015625-10.757813-.765625-16.355469-3.175781-23.675781 3.417969-20.019531 17.195313-26.703125 3.730468-1.808594 5.285156-6.292969 3.476562-10.019531-1.808594-3.726563-6.292969-5.285157-10.019531-3.476563-1.589844.773438-3.355469 1.441406-5.226563 2.148438-7.242187 2.730468-17.15625 6.476562-20.3125 19.542968-1.757812 7.269532-.8125 14.300782.019532 20.503907.5 3.722656.972656 7.238281.875 10.554687-.039063 1.265625-.167969 2.539063-.390626 3.804688h-17.878906c-1.640625-38.4375 12.40625-77.46875 38.277344-105.597656 2.804688-3.046876 2.605469-7.792969-.445312-10.597657-3.046876-2.800781-7.792969-2.605469-10.597657.445313-28.378906 30.859375-43.863281 73.601562-42.246093 115.75h-19.925782c-1.980468-5.074219-2.070312-8.347656-2.351562-11.71875-.597656-23.007813 16.554687-26.535156 17.984375-42.847656 1.144531-13.007813-10.070313-22.457032-9.332031-29.410157.8125-7.773437 15.929687-11.558593 23.757812-16.671875 12.511719-8.183594 14.523438-20.25 19.886719-29.855468 4.5625-8.191407 13.078125-13.945313 22.226562-15.011719 8.851563-1.03125 18.742188 3.042969 24.597657 10.148437 4.339843 5.257813 5.097656 13.738282 1.761718 19.722656-5.011718 8.992188-17.5625 14.921876-15.316406 36.242188.136719 1.273438.3125 2.582031.488281 3.921875l.152344 1.148437c.539063 4.109376 4.308594 6.996094 8.410156 6.464844 4.105469-.535156 7-4.300781 6.464844-8.410156l-.15625-1.183594c-2.535156-19.019531 5.34375-17.035156 13.058594-30.882812 6.382812-11.449219 5.027343-26.488282-3.292969-36.570313zm-36.289062 162.777344-13.175782 97.230469c-.398437 2.957031-2.953125 5.191406-5.9375 5.191406h-61.292968c-2.984376 0-5.539063-2.230469-5.9375-5.191406-13.183594-101.441406-14.148438-97.425782-12.570313-99.230469 1.570313-1.800781-2.078125-.3125 96.410156-.867187 1.527344 0 2.707031 1.347656 2.503907 2.867187zm-170.46875-210.988281c-8.597657 6.820312-13.925782 15.660156-19.078126 24.207031-3.140624 5.203125-6.105468 10.121094-9.675781 14.394531-8.511719 10.183594-21.824219 15.023438-39.621093 14.429688-4.328126-.148438-8.671876-.53125-13.273438-.9375-11.066406-.976563-22.472656-1.976563-33.96875.386718v-199.070312h172.308594v132.746094c-25.285156-.863282-43.882813 3.6875-56.691406 13.84375zm104.574218 87.738281c-1.59375-3.640625-3.238281-7.332031-4.921875-11.046875-1.710937-3.769531-6.15625-5.441406-9.925781-3.730469-3.773438 1.710938-5.445312 6.152344-3.734375 9.925781 2.398437 5.296876 4.71875 10.539063 6.914063 15.640626-1.714844 2.828124-2.773438 5.875-3.101563 9.050781-.808594 7.585937 2.546875 13.769531 5.503906 19.226562 2.089844 3.851563 4.0625 7.488281 3.800781 10.441407-.257812 2.9375-2.792968 6.117187-5.476562 9.480468-.773438.96875-1.566406 1.964844-2.34375 2.996094-.019531-.207031-.039062-.414062-.0625-.621094-1.820312-16.757812-12.777344-24.03125-18.972656-34.449218-11.730469-19.703126 9.125-33.128907-.125-53.886719-3.496094-7.835938-9.902344-13.019531-12.164063-18.507813-.269531-.660156-.484375-1.34375-.648437-2.050781-1.9375-8.359375 4.011718-15.3125 10.597656-17.605469 7.066406-2.46875 15.710938-1.476562 22.003906 2.53125 4.359375 2.78125 7.515625 6.9375 8.65625 11.402344.703125 2.757812.757813 5.96875.816406 9.367188.070313 3.921874.148438 8.363281 1.28125 12.804687 2.429688 9.5625 8.839844 16.625 15.484376 22.464844-1.816407.988281-3.796876 1.875-5.863282 2.800781-2.519531 1.125-5.125 2.292969-7.71875 3.765625zm0 0"/><path d="m155.6875 321.828125h-123.222656c-17.902344 0-32.464844 14.566406-32.464844 32.464844 0 17.902343 14.5625 32.464843 32.464844 32.464843h8.152344l-6.726563 26.550782c-.027344.085937-.046875.171875-.066406.261718l-9.984375 39.394532c-.0625.207031-.113282.417968-.160156.628906l-12.429688 49.0625c-1.019531 4.015625 1.410156 8.097656 5.429688 9.113281.617187.15625 1.234374.230469 1.847656.230469 3.347656 0 6.402344-2.261719 7.261718-5.660156l11.519532-45.453125 56.765625-19.503907 56.773437 19.507813 11.515625 45.449219c.859375 3.398437 3.914063 5.660156 7.265625 5.660156.609375 0 1.230469-.074219 1.847656-.230469 4.015626-1.019531 6.445313-5.097656 5.429688-9.113281l-12.476562-49.230469c-.023438-.097656-.046876-.199219-.074219-.292969l-16.820313-66.375h8.152344c17.902344 0 32.464844-14.5625 32.464844-32.464843 0-17.898438-14.5625-32.464844-32.464844-32.464844zm-113.980469 121.6875 4.695313-18.515625 24.59375 8.453125zm75.445313-10.0625 24.597656-8.453125 4.691406 18.515625zm20.902344-23.042969-43.980469 15.109375-43.976563-15.109375 5.992188-23.652344h75.96875zm17.632812-38.652344h-105.292969c-.089843-.003906-.175781 0-.261719 0h-17.667968c-9.632813 0-17.464844-7.835937-17.464844-17.464843 0-9.628907 7.832031-17.464844 17.464844-17.464844h123.222656c9.628906 0 17.464844 7.835937 17.464844 17.464844 0 9.628906-7.835938 17.464843-17.464844 17.464843zm0 0"/><path d="m112.496094 47.074219c-16.449219 0-29.835938 13.386719-29.835938 29.835937 0 16.449219 13.386719 29.832032 29.835938 29.832032 16.449218 0 29.832031-13.382813 29.832031-29.832032 0-16.449218-13.382813-29.835937-29.832031-29.835937zm0 44.667969c-8.179688 0-14.835938-6.652344-14.835938-14.832032 0-8.179687 6.65625-14.835937 14.835938-14.835937 8.179687 0 14.832031 6.65625 14.832031 14.835937 0 8.179688-6.652344 14.832032-14.832031 14.832032zm0 0"/></svg>