<svg id="Layer_1" data-name="Layer 1" xmlns="http://www.w3.org/2000/svg" viewBox="0 0 64 64"><title>winter rev</title><path d="M38.85,35.48v-.01A1,1,0,0,0,37,36a19.085,19.085,0,0,1-.24,2.84c-.02.14-.05.28-.07.41-.59-2.97-2.18-6.71-6.37-8.2a1,1,0,0,0-1.29,1.18c.557,2.529,1,7.081-1.07,8.63C27.65,40.51,27,39.37,27,36a1,1,0,0,0-1.91-.42c-2.744,4.62-5.028,11.545-.96,15.15,2.408,2.142,6.374,2.453,9.59,2.21a1.013,1.013,0,0,0,.92-1.08,1,1,0,0,0-1.08-.92c-2.555.205-6.169.01-8.11-1.71-2.538-2.27-1.468-6.532-.14-9.67.6,2.948,2.242,3.751,3.14,3.33,3.089-1.605,3.321-5.678,2.88-9.12,2.208,1.539,3.26,4.393,3.58,7.07.07.58.08.98.09,1.11A1,1,0,0,0,36,43c1.674-.015,2.354-1.827,2.67-3.47,1.179,2.767,2.269,6.747.42,9.12a1,1,0,0,0,.18,1.4,1.018,1.018,0,0,0,1.4-.18c2.964-3.816.681-10.179-1.76-14.29A.469.469,0,0,0,38.85,35.48Z"/><path d="M37.11,50.13c0,.01,0,.01-.01.01a1,1,0,0,0,.82,1.83c0-.01,0-.01.01-.01a.994.994,0,0,0,.5-1.32A1.018,1.018,0,0,0,37.11,50.13Z"/><circle cx="49" cy="4" r="1"/><circle cx="6" cy="13" r="1"/><circle cx="58" cy="49" r="1"/><path d="M60,3H53a1,1,0,0,0,0,2h6V7H5V5H46a1,1,0,0,0,0-2H4A1,1,0,0,0,3,4V8A1,1,0,0,0,4,9H5v1a1,1,0,0,0,2,0V9H57v2H42a1,1,0,0,0-1,1v3H38a1,1,0,0,0-1,1v4a1,1,0,0,0,1,1h8a1,1,0,0,0,1-1V17H57V35H50a1,1,0,0,0-1,1v3H47V29h3a1,1,0,0,0,1-1V24a1,1,0,0,0-1-1H14a1,1,0,0,0-1,1v4a1,1,0,0,0,1,1h3V47H10a1,1,0,0,0-1,1v3H7V17a1,1,0,0,0-2,0V55H4a1,1,0,0,0-1,1v4a1,1,0,0,0,1,1H60a1,1,0,0,0,1-1V56a1,1,0,0,0-1-1H59V52a1,1,0,0,0-2,0v3H47V45h7a1,1,0,0,0,1-1V41h2v4a1,1,0,0,0,2,0V9c.77-.051,1.269.151,1.71-.29A.99.99,0,0,0,61,8V4A1,1,0,0,0,60,3ZM45,19H39V17h6Zm4-4H43V13h6ZM11,49h6v2H11Zm6,4v2H15V53ZM7,53h6v2H7Zm52,4v2H5V57ZM19,55V29H45V55ZM15,27V25H49v2ZM53,43H47V41h6Zm4-4H51V37h6Zm0-24H51V13h6Z"/><path d="M14,21h8a1,1,0,0,0,1-1V17h3a1,1,0,0,0,1-1V12a1,1,0,0,0-1-1H10a1,1,0,0,0-1,1v4a1,1,0,0,0,1,1h3v3A1,1,0,0,0,14,21Zm5-8h6v2H19Zm2,4v2H15V17ZM11,15V13h6v2Z"/></svg>