<svg height='100px' width='100px'  fill="#000000" xmlns="http://www.w3.org/2000/svg" xmlns:xlink="http://www.w3.org/1999/xlink" version="1.1" x="0px" y="0px" viewBox="0 0 98 98" enable-background="new 0 0 98 98" xml:space="preserve"><g><path d="M14.1655,78.1657c0.1301,0.4333,0.2855,0.8632,0.4609,1.2779l1.7979-0.7617c-0.1482-0.3499-0.2793-0.7131-0.3894-1.0787   L14.1655,78.1657z"></path><path d="M19.6394,82.915l-1.2164,1.5272c0.552,0.4395,1.1421,0.8346,1.7541,1.1749l0.9485-1.7064   C20.6074,83.6224,20.107,83.2878,19.6394,82.915z"></path><path d="M15.6088,81.313c0.3766,0.5915,0.8065,1.1568,1.2774,1.6807l1.4519-1.3051c-0.3994-0.4442-0.7636-0.9233-1.082-1.4242   L15.6088,81.313z"></path><path d="M67.6661,15.4291l-5.6793,35.7477c7.6818,0,8.0411,0,12.5583,0v6.3804h-5.4881v0.9762   c0,5.4246,4.1611,9.8917,9.4586,10.3867v5.5887c0,3.7732-3.0701,6.8433-6.8433,6.8433c-3.7651,0-6.8428-3.0639-6.8428-6.8433   v-8.3952c0-2.1101-1.7164-3.8265-3.8265-3.8265h-1.5522c-0.4007-7.1129-5.1139-12.7499-10.864-12.7499   s-10.4633,5.637-10.864,12.7499h-0.7243c-2.1101,0-3.8265,1.7164-3.8265,3.8265v8.3952c0,3.7725-3.0709,6.8433-6.8428,6.8433   c-3.7732,0-6.8433-3.0701-6.8433-6.8433v-5.5888c5.2965-0.4958,9.4567-4.9626,9.4567-10.3866v-0.9762h-5.4877v-6.3804h2.4447   h10.1135l-5.6793-35.7477c-7.796,0-14.6911,0-23.6547,0L1,51.1769c7.6818,0,8.0411,0,12.5583,0v6.3804H8.0706v0.9762   c0,5.4262,4.1637,9.8942,9.4629,10.387v5.5884c0,4.8499,3.9457,8.7956,8.7956,8.7956c4.8505,0,8.7951-3.9437,8.7951-8.7956v-8.3952   c0-1.0334,0.8408-1.8742,1.8742-1.8742h0.7242c0.4003,7.1133,5.1137,12.7504,10.8641,12.7504s10.4638-5.6371,10.8641-12.7504   h1.5521c1.0334,0,1.8742,0.8408,1.8742,1.8742v8.3952c0,4.8517,3.9444,8.7956,8.7951,8.7956c4.8499,0,8.7956-3.9457,8.7956-8.7956   v-5.5885c5.2988-0.4936,9.4615-4.9613,9.4615-10.3868v-0.9762h-5.4877v-6.3804c4.4936,0,4.9385,0,12.5583,0l-5.6797-35.7477   C83.5244,15.4291,76.6294,15.4291,67.6661,15.4291z M13.1898,49.2245l1.4557-23.5875l-1.9485-0.1201l-1.463,23.7076H3.287   l5.0587-31.843h4.8533l-0.2846,4.6087l1.9485,0.1201l0.2917-4.7288h6.7036l1.4481,23.4631l1.9485-0.1201l-1.4401-23.3429h4.8529   l5.0587,31.843h-7.9471l-0.3208-5.1979l-1.9485,0.1201l0.3136,5.0777h-0.3684h-9.8967H13.1898z M15.5106,51.1769h5.992v6.3804   h-5.992V51.1769z M10.0787,59.5097h3.4795h9.8967h3.4795c-0.4857,4.2198-4.0801,7.5077-8.4281,7.5077   C14.1589,67.0174,10.5644,63.7294,10.0787,59.5097z M48.5867,75.0375c-4.6853,0-8.5342-4.7619-8.9134-10.798h1.1931   c0.4231,1.4066,1.715,2.4409,3.2575,2.4409c1.8837,0,3.4166-1.5329,3.4166-3.4166s-1.5329-3.4166-3.4166-3.4166   c-1.5421,0-2.8338,1.0339-3.2572,2.44h-1.1933c0.3795-6.0361,4.2283-10.7975,8.9134-10.7975s8.5339,4.7614,8.9134,10.7975h-1.322   c-0.4234-1.4061-1.7151-2.44-3.2572-2.44c-1.8837,0-3.4166,1.5329-3.4166,3.4166s1.5329,3.4166,3.4166,3.4166   c1.5424,0,2.8344-1.0343,3.2575-2.4409h1.3218C57.1209,70.2756,53.272,75.0375,48.5867,75.0375z M42.6596,63.2637   c0-0.8074,0.6568-1.4643,1.4643-1.4643c0.8074,0,1.4643,0.6568,1.4643,1.4643s-0.6568,1.4643-1.4643,1.4643   C43.3164,64.728,42.6596,64.0712,42.6596,63.2637z M54.3852,63.2637c0,0.8074-0.6568,1.4643-1.4643,1.4643   c-0.8074,0-1.4643-0.6568-1.4643-1.4643s0.6568-1.4643,1.4643-1.4643C53.7284,61.7995,54.3852,62.4563,54.3852,63.2637z    M87.9213,59.5097c-0.4857,4.2198-4.0801,7.5077-8.4281,7.5077c-4.348,0-7.9424-3.2879-8.4281-7.5077h3.48h9.8967H87.9213z    M82.4894,57.5573h-5.992v-6.3804h5.992V57.5573z M86.7659,49.2245l-0.2121-3.4347l-1.9485,0.1201l0.205,3.3146   c-2.5021,0-5.5314,0-10.2651,0h-0.3685l1.4852-24.0703l-1.9485-0.1201l-1.4925,24.1904h-7.9471l5.0587-31.843h4.8533l-0.2779,4.501   l1.9485,0.1201l0.285-4.6211h6.7036l1.5768,25.5508l1.9485-0.1201l-1.5688-25.4307h4.8525l5.0592,31.843H86.7659z"></path><path d="M78.1909,85.406l-1.0048-1.674c-0.51,0.306-1.0501,0.5715-1.6039,0.7893l0.7131,1.817   C76.9502,86.0814,77.588,85.7678,78.1909,85.406z"></path><path d="M73.8711,85.0304c-0.5796,0.1211-1.1768,0.1945-1.7746,0.2183l0.0772,1.9504c0.7059-0.0276,1.4109-0.1144,2.0958-0.2574   L73.8711,85.0304z"></path><path d="M81.3926,82.6748l-1.4938-1.2564c-0.3828,0.4547-0.807,0.8818-1.2612,1.2693l1.2679,1.4852   C80.4407,83.7153,80.9412,83.2115,81.3926,82.6748z"></path><rect x="23.2786" y="10.8009" width="1.9524" height="1.9524"></rect><rect x="15.4692" y="10.8009" width="1.9524" height="1.9524"></rect><rect x="11.5645" y="10.8009" width="1.9524" height="1.9524"></rect><rect x="19.3739" y="10.8009" width="1.9524" height="1.9524"></rect><rect x="84.2654" y="10.8009" width="1.9524" height="1.9524"></rect><rect x="76.4559" y="10.8009" width="1.9524" height="1.9524"></rect><rect x="80.3606" y="10.8009" width="1.9524" height="1.9524"></rect><rect x="72.5512" y="10.8009" width="1.9524" height="1.9524"></rect></g></svg>