<?xml version="1.0" encoding="iso-8859-1"?>
<!-- Generator: Adobe Illustrator 19.0.0, SVG Export Plug-In . SVG Version: 6.00 Build 0)  -->
<svg version="1.1" id="Capa_1" xmlns="http://www.w3.org/2000/svg" xmlns:xlink="http://www.w3.org/1999/xlink" x="0px" y="0px"
	 viewBox="0 0 512.001 512.001" style="enable-background:new 0 0 512.001 512.001;" xml:space="preserve">
<g>
	<g>
		<path d="M493.375,24.699L493.375,24.699C493.374,11.08,482.294,0,468.676,0H273.513c-4.139,0-7.493,3.354-7.493,7.493
			c0,4.139,3.354,7.493,7.493,7.493h195.163c5.355,0,9.712,4.356,9.712,9.712v3.823c0,5.355-4.356,9.712-9.712,9.712H43.346
			c-5.355,0-9.712-4.356-9.712-9.712v-3.823c0-5.355,4.356-9.712,9.712-9.712h195.198c4.139,0,7.493-3.354,7.493-7.493
			c0-4.139-3.354-7.493-7.493-7.493H43.346C29.728,0,18.647,11.08,18.647,24.699c0,4.175-0.772,13.034,7.003,21.028
			c-7.561,7.774-7.003,16.217-7.003,21.028c0,13.547,10.965,24.576,24.486,24.691v229.148
			c-11.525,2.083-20.296,12.182-20.296,24.298v3.821c0,12.115,8.771,22.213,20.296,24.296v114.293
			c0,13.619,11.08,24.699,24.699,24.699c5.222,0,366.12,0,376.357,0c13.618,0,24.697-11.08,24.697-24.699V373.009
			c11.526-2.082,20.298-12.181,20.298-24.296v-3.821c0-12.116-8.772-22.215-20.298-24.298V91.445
			c13.521-0.113,24.488-11.143,24.488-24.691V62.93c0-6.684-2.674-12.753-7.003-17.204c4.329-4.451,7.003-10.521,7.003-17.206
			V24.699z M47.534,358.422c-5.354,0-9.71-4.355-9.71-9.71v-3.821c0-5.355,4.355-9.712,9.71-9.712c10.751,0,46.576,0,57.347,0
			c5.355,0,9.712,4.356,9.712,9.712v3.821c0,5.354-4.356,9.71-9.712,9.71C98.577,358.422,54.091,358.422,47.534,358.422z
			 M139.107,91.451h61.141c1.847,90.13-28.628,180.111-104.983,228.741h-5.59C129.375,261.32,140.271,161.946,139.107,91.451z
			 M215.267,91.451h14.137v176.173h-60.26C194.996,231.22,217.451,161.795,215.267,91.451z M71.177,320.192H58.12V91.451h65.979
			C124.565,123.376,123.108,253.892,71.177,320.192z M100.261,497.013H67.832c-5.355,0-9.712-4.356-9.712-9.712V373.889h6.403
			C97.755,408.754,100.35,475.246,100.261,497.013z M115.286,497.013c0.175-21.365-2.052-80.672-29.751-120.881
			c44.932,25.308,67.589,70.278,67.043,120.881H115.286z M229.404,497.013h-61.822c0-48.884-19.438-94.578-59.089-123.868
			c6.934-1.142,12.482-4.647,16.29-9.832c0.372-0.504,0.865-1.231,1.244-1.855c0.396-0.662,0.727-1.278,1.005-1.839
			c0.299-0.61,0.516-1.076,0.854-1.94c0.266-0.695,0.443-1.167,0.71-2.092c0.187-0.63,0.382-1.42,0.533-2.206
			c0.125-0.636,0.259-1.525,0.333-2.297c0.007-0.076,0.011-0.154,0.018-0.232c1.016-11.873-2.03-21.536-12.473-27.472
			c0.109-0.083,2.646-2.026,3.301-2.538h109.096V497.013z M344.437,497.013h-61.813v-72.284c0-4.139-3.354-7.493-7.493-7.493
			c-4.139,0-7.493,3.354-7.493,7.493v72.284h-23.245V313.349c0-4.139-3.354-7.493-7.493-7.493h-99.333
			c7.597-7.336,15.102-15.765,20.877-23.245h78.456c4.139,0,7.493-3.354,7.493-7.493V91.451h23.245v183.666
			c0,4.139,3.354,7.493,7.493,7.493h78.448c5.268,6.863,12.989,15.624,20.876,23.245h-99.323c-4.139,0-7.493,3.354-7.493,7.493
			v76.411c0,4.139,3.354,7.493,7.493,7.493c4.139,0,7.493-3.354,7.493-7.493v-68.917h109.087c0.797,0.622,3.251,2.501,3.302,2.539
			c-7.857,4.508-12.569,12.668-12.569,21.51v3.821c0,0.722,0.038,1.436,0.099,2.142c0.007,0.077,0.011,0.154,0.018,0.231
			c0.064,0.669,0.159,1.329,0.276,1.981c0.018,0.105,0.036,0.211,0.057,0.315c0.122,0.637,0.271,1.265,0.441,1.883
			c0.03,0.107,0.06,0.215,0.092,0.322c0.18,0.617,0.38,1.227,0.604,1.822c0.034,0.091,0.071,0.18,0.106,0.27
			c3.246,8.275,10.568,14.116,19.405,15.469c-34.488,25.374-54.182,63.796-58.338,106.773
			C344.592,486.205,344.361,492.679,344.437,497.013z M342.875,267.624h-60.252V91.451h14.13
			C295.099,151.145,310.261,218.705,342.875,267.624z M422.346,320.192h-5.597c-76.742-48.999-106.39-138.432-104.978-228.741
			h61.141C371.747,162.047,382.673,261.364,422.346,320.192z M387.922,91.451h65.977v228.741h-13.054
			C388.952,253.939,387.465,123.387,387.922,91.451z M359.443,497.013c0-1.823-0.084-5.74,0.474-13.086
			c0.069-0.858,0.168-1.969,0.211-2.413c0.075-0.787,0.159-1.594,0.251-2.411c4.716-43.253,26.276-80.57,66.107-102.969
			c-27.701,40.209-29.926,99.515-29.751,120.879H359.443z M444.19,497.013h-32.437c-0.104-21.753,2.457-88.205,35.743-123.124h6.403
			v113.412h0.001C453.9,492.656,449.545,497.013,444.19,497.013z M474.198,344.891v3.821c0,5.354-4.356,9.71-9.712,9.71
			c-6.55,0-52.064,0-57.347,0c-5.354,0-9.71-4.355-9.71-9.71v-3.821c0-5.355,4.355-9.712,9.71-9.712c59.484,0,6.182,0,57.347,0
			C469.842,335.179,474.198,339.536,474.198,344.891z M478.387,66.754c0,5.354-4.356,9.71-9.712,9.71h-7.283
			c-5.257,0-414.69,0-418.047,0c-5.355,0-9.712-4.355-9.712-9.71V62.93c0-5.354,4.356-9.71,9.712-9.71h425.329
			c5.355,0,9.712,4.355,9.712,9.71V66.754z"/>
	</g>
</g>
<g>
</g>
<g>
</g>
<g>
</g>
<g>
</g>
<g>
</g>
<g>
</g>
<g>
</g>
<g>
</g>
<g>
</g>
<g>
</g>
<g>
</g>
<g>
</g>
<g>
</g>
<g>
</g>
<g>
</g>
</svg>
